<mxfile host="drawio-plugin" modified="2021-10-30T14:06:09.313Z" agent="5.0 (Macintosh; Intel Mac OS X 10_13_6) AppleWebKit/537.36 (KHTML, like Gecko) Chrome/84.0.4147.105 Safari/537.36" version="14.6.6" etag="ToIqdnuJwQimXZ8VJh67" type="embed"><diagram id="jYTpzOq9kekplOgq5QiW" name="Page-1"><mxGraphModel dx="904" dy="545" grid="1" gridSize="10" guides="1" tooltips="1" connect="1" arrows="1" fold="1" page="1" pageScale="1" pageWidth="850" pageHeight="1100" math="0" shadow="0"><root><mxCell id="0"/><mxCell id="1" parent="0"/><mxCell id="4" value="" style="edgeStyle=orthogonalEdgeStyle;rounded=0;orthogonalLoop=1;jettySize=auto;html=1;" edge="1" parent="1" source="2" target="3"><mxGeometry relative="1" as="geometry"/></mxCell><mxCell id="2" value="初始化环境&lt;br&gt;数据中心、运行环境" style="rounded=1;whiteSpace=wrap;html=1;" vertex="1" parent="1"><mxGeometry x="150" y="20" width="160" height="60" as="geometry"/></mxCell><mxCell id="3" value="" style="whiteSpace=wrap;html=1;rounded=1;" vertex="1" parent="1"><mxGeometry x="170" y="130" width="120" height="60" as="geometry"/></mxCell></root></mxGraphModel></diagram></mxfile>